<svg width="20" height="20" viewBox="0 0 20 20" fill="none" xmlns="http://www.w3.org/2000/svg">
<g id="edit icon">
<path id="Combined Shape" fill-rule="evenodd" clip-rule="evenodd" d="M10.8963 3.41421C11.6774 2.63316 12.9437 2.63316 13.7248 3.41421L16.5532 6.24264C17.3342 7.02369 17.3342 8.29002 16.5532 9.07107L9.60476 16.0195C9.52246 16.1018 9.41404 16.1528 9.29817 16.1637L5.58247 16.5143C4.32207 16.6332 3.26968 15.566 3.40628 14.3074L3.80158 10.665C3.81388 10.5517 3.86452 10.446 3.94511 10.3654L10.8963 3.41421ZM12.0958 5.70711C12.4863 5.31658 13.1195 5.31658 13.51 5.70711L14.9242 7.12132C15.3147 7.51184 15.3147 8.14501 14.9242 8.53553L9.26433 14.1954L7.19904 14.6092C6.49907 14.7495 5.8818 14.1322 6.02206 13.4323L6.4359 11.367L9.81173 7.99114L12.3082 10.4876L13.7232 9.07263L11.2267 6.57615L12.0958 5.70711Z" fill="#F05D63"/>
</g>
</svg>
